<svg width="18" height="18" viewBox="0 0 18 18" fill="none" xmlns="http://www.w3.org/2000/svg">
<path d="M13.7199 13.7199C11.1208 16.319 6.88907 16.319 4.28993 13.7199C1.6908 11.1208 1.6908 6.88907 4.28993 4.28993C6.88907 1.6908 11.1208 1.6908 13.7199 4.28993C16.319 6.88907 16.319 11.1208 13.7199 13.7199ZM3.11119 3.11119C2.33721 3.88516 1.72326 4.80401 1.30439 5.81526C0.885513 6.8265 0.669922 7.91035 0.669922 9.00492C0.669922 11.2155 1.54807 13.3355 3.11119 14.8987C4.6743 16.4618 6.79434 17.3399 9.00492 17.3399C10.0995 17.3399 11.1833 17.1243 12.1946 16.7055C13.2058 16.2866 14.1247 15.6726 14.8987 14.8987C16.4618 13.3355 17.3399 11.2155 17.3399 9.00492C17.3399 6.79434 16.4618 4.6743 14.8987 3.11119C14.1247 2.33721 13.2058 1.72326 12.1946 1.30439C11.1833 0.885513 10.0995 0.669922 9.00492 0.669922C7.91035 0.669922 6.8265 0.885513 5.81526 1.30439C4.80401 1.72326 3.88516 2.33721 3.11119 3.11119ZM6.64743 5.46868L5.46868 6.64743L7.82617 9.00492L5.46868 11.3624L6.64743 12.5412L9.00492 10.1837L11.3624 12.5412L12.5412 11.3624L10.1837 9.00492L12.5412 6.64743L11.3624 5.46868L9.00492 7.82617L6.64743 5.46868Z" fill="white"/>
</svg>
