<svg width="12" height="14" viewBox="0 0 12 14" fill="none" xmlns="http://www.w3.org/2000/svg">
<path d="M2.66667 5.66656H11.3333C11.5101 5.66656 11.6797 5.7368 11.8047 5.86183C11.9298 5.98685 12 6.15642 12 6.33323V12.9999C12 13.1767 11.9298 13.3463 11.8047 13.4713C11.6797 13.5963 11.5101 13.6666 11.3333 13.6666H0.666667C0.489856 13.6666 0.320286 13.5963 0.195262 13.4713C0.0702379 13.3463 0 13.1767 0 12.9999V6.33323C0 6.15642 0.0702379 5.98685 0.195262 5.86183C0.320286 5.7368 0.489856 5.66656 0.666667 5.66656H1.33333V4.9999C1.33295 3.94837 1.68772 2.92753 2.34013 2.10285C2.99253 1.27818 3.90434 0.698017 4.92773 0.456405C5.95113 0.214794 7.02613 0.325897 7.97848 0.771705C8.93084 1.21751 9.70471 1.97189 10.1747 2.91256L8.982 3.50856C8.64633 2.83658 8.09353 2.29766 7.41322 1.9792C6.73291 1.66073 5.96497 1.58138 5.23392 1.75402C4.50287 1.92665 3.85155 2.34115 3.38557 2.9303C2.91959 3.51946 2.66627 4.24874 2.66667 4.9999V5.66656ZM4.66667 8.9999V10.3332H7.33333V8.9999H4.66667Z" fill="white"/>
</svg>
